<svg width="60" height="12" viewBox="0 0 60 12" fill="none" xmlns="http://www.w3.org/2000/svg">
<path d="M53.7876 2.75997H55.0956V3.79197H55.1556C55.2916 3.41597 55.5116 3.12797 55.8156 2.92797C56.1276 2.71997 56.4916 2.61597 56.9076 2.61597C57.6996 2.61597 58.3116 2.90397 58.7436 3.47997C59.1756 4.04797 59.3916 4.84797 59.3916 5.87997C59.3916 6.91197 59.1756 7.71597 58.7436 8.29197C58.3116 8.85997 57.6996 9.14397 56.9076 9.14397C56.4916 9.14397 56.1276 9.03997 55.8156 8.83197C55.5116 8.62397 55.2916 8.33597 55.1556 7.96797H55.0956V11.4H53.7876V2.75997ZM56.5116 8.01597C56.9676 8.01597 57.3316 7.87197 57.6036 7.58397C57.8756 7.28797 58.0116 6.89997 58.0116 6.41997V5.33997C58.0116 4.85997 57.8756 4.47597 57.6036 4.18797C57.3316 3.89197 56.9676 3.74397 56.5116 3.74397C56.1116 3.74397 55.7756 3.84397 55.5036 4.04397C55.2316 4.23597 55.0956 4.49197 55.0956 4.81197V6.94797C55.0956 7.26797 55.2316 7.52797 55.5036 7.72797C55.7756 7.91997 56.1116 8.01597 56.5116 8.01597Z" fill="white"/>
<path d="M50.6066 7.96801H50.5586C50.5026 8.12001 50.4266 8.26801 50.3306 8.41201C50.2426 8.55601 50.1266 8.68401 49.9826 8.79601C49.8466 8.90001 49.6786 8.98401 49.4786 9.04801C49.2866 9.11201 49.0626 9.14401 48.8066 9.14401C48.1586 9.14401 47.6546 8.93601 47.2946 8.52001C46.9426 8.10401 46.7666 7.50801 46.7666 6.73201V2.76001H48.0746V6.56401C48.0746 7.53201 48.4746 8.01601 49.2746 8.01601C49.4426 8.01601 49.6066 7.99601 49.7666 7.95601C49.9266 7.90801 50.0666 7.84001 50.1866 7.75201C50.3146 7.66401 50.4146 7.55201 50.4866 7.41601C50.5666 7.28001 50.6066 7.12001 50.6066 6.93601V2.76001H51.9146V9.00001H50.6066V7.96801Z" fill="white"/>
<path d="M42.5011 9.14397C42.0691 9.14397 41.6731 9.06797 41.3131 8.91597C40.9611 8.76397 40.6611 8.54797 40.4131 8.26797C40.1651 7.97997 39.9731 7.63597 39.8371 7.23597C39.7011 6.82797 39.6331 6.37597 39.6331 5.87997C39.6331 5.38397 39.7011 4.93597 39.8371 4.53597C39.9731 4.12797 40.1651 3.78397 40.4131 3.50397C40.6611 3.21597 40.9611 2.99597 41.3131 2.84397C41.6731 2.69197 42.0691 2.61597 42.5011 2.61597C42.9331 2.61597 43.3251 2.69197 43.6771 2.84397C44.0371 2.99597 44.3411 3.21597 44.5891 3.50397C44.8371 3.78397 45.0291 4.12797 45.1651 4.53597C45.3011 4.93597 45.3691 5.38397 45.3691 5.87997C45.3691 6.37597 45.3011 6.82797 45.1651 7.23597C45.0291 7.63597 44.8371 7.97997 44.5891 8.26797C44.3411 8.54797 44.0371 8.76397 43.6771 8.91597C43.3251 9.06797 42.9331 9.14397 42.5011 9.14397ZM42.5011 8.06397C42.9491 8.06397 43.3091 7.92797 43.5811 7.65597C43.8531 7.37597 43.9891 6.95997 43.9891 6.40797V5.35197C43.9891 4.79997 43.8531 4.38797 43.5811 4.11597C43.3091 3.83597 42.9491 3.69597 42.5011 3.69597C42.0531 3.69597 41.6931 3.83597 41.4211 4.11597C41.1491 4.38797 41.0131 4.79997 41.0131 5.35197V6.40797C41.0131 6.95997 41.1491 7.37597 41.4211 7.65597C41.6931 7.92797 42.0531 8.06397 42.5011 8.06397Z" fill="white"/>
<path d="M35.5181 9.00001V2.76001H36.8261V3.96001H36.8861C36.9741 3.64001 37.1581 3.36001 37.4381 3.12001C37.7181 2.88001 38.1061 2.76001 38.6021 2.76001H38.9501V4.02001H38.4341C37.9141 4.02001 37.5141 4.10401 37.2341 4.27201C36.9621 4.44001 36.8261 4.68801 36.8261 5.01601V9.00001H35.5181Z" fill="white"/>
<path d="M32.541 7.72798H32.493C32.405 8.13598 32.165 8.47598 31.773 8.74798C31.389 9.01198 30.877 9.14398 30.237 9.14398C29.741 9.14398 29.281 9.05198 28.857 8.86798C28.433 8.67598 28.065 8.39998 27.753 8.03998C27.449 7.67198 27.209 7.21998 27.033 6.68398C26.865 6.13998 26.781 5.51598 26.781 4.81198C26.781 4.11598 26.869 3.49998 27.045 2.96398C27.221 2.41998 27.469 1.96398 27.789 1.59598C28.109 1.22798 28.493 0.951981 28.941 0.767981C29.389 0.575981 29.889 0.47998 30.441 0.47998C31.193 0.47998 31.829 0.64798 32.349 0.98398C32.869 1.31198 33.273 1.77198 33.561 2.36398L32.457 3.01198C32.297 2.61998 32.049 2.30398 31.713 2.06398C31.377 1.81598 30.953 1.69198 30.441 1.69198C29.777 1.69198 29.241 1.90398 28.833 2.32798C28.433 2.75198 28.233 3.35198 28.233 4.12798V5.49598C28.233 6.27198 28.433 6.87198 28.833 7.29598C29.241 7.71998 29.777 7.93198 30.441 7.93198C30.705 7.93198 30.957 7.89998 31.197 7.83598C31.437 7.76398 31.645 7.66398 31.821 7.53598C32.005 7.39998 32.149 7.23598 32.253 7.04398C32.365 6.84398 32.421 6.61198 32.421 6.34798V5.69998H30.693V4.53598H33.729V8.99998H32.541V7.72798Z" fill="white"/>
<path d="M17.2603 8.99997V2.75997H18.5683V3.79197H18.6283C18.7643 3.45597 18.9683 3.17597 19.2403 2.95197C19.5203 2.72797 19.9003 2.61597 20.3803 2.61597C21.0203 2.61597 21.5163 2.82797 21.8683 3.25197C22.2283 3.66797 22.4083 4.26397 22.4083 5.03997V8.99997H21.1003V5.20797C21.1003 4.23197 20.7083 3.74397 19.9243 3.74397C19.7563 3.74397 19.5883 3.76797 19.4203 3.81597C19.2603 3.85597 19.1163 3.91997 18.9883 4.00797C18.8603 4.09597 18.7563 4.20797 18.6763 4.34397C18.6043 4.47997 18.5683 4.63997 18.5683 4.82397V8.99997H17.2603Z" fill="white"/>
<path d="M14.7444 1.64402C14.4724 1.64402 14.2724 1.58002 14.1444 1.45202C14.0244 1.32402 13.9644 1.16002 13.9644 0.960022V0.756021C13.9644 0.556022 14.0244 0.392022 14.1444 0.264021C14.2724 0.136022 14.4724 0.0720215 14.7444 0.0720215C15.0164 0.0720215 15.2124 0.136022 15.3324 0.264021C15.4524 0.392022 15.5124 0.556022 15.5124 0.756021V0.960022C15.5124 1.16002 15.4524 1.32402 15.3324 1.45202C15.2124 1.58002 15.0164 1.64402 14.7444 1.64402ZM14.0844 2.76002H15.3924V9.00002H14.0844V2.76002Z" fill="white"/>
<path d="M9.75887 9.14397C9.32687 9.14397 8.93087 9.06797 8.57087 8.91597C8.21887 8.76397 7.91887 8.54797 7.67087 8.26797C7.42287 7.97997 7.23087 7.63597 7.09487 7.23597C6.95887 6.82797 6.89087 6.37597 6.89087 5.87997C6.89087 5.38397 6.95887 4.93597 7.09487 4.53597C7.23087 4.12797 7.42287 3.78397 7.67087 3.50397C7.91887 3.21597 8.21887 2.99597 8.57087 2.84397C8.93087 2.69197 9.32687 2.61597 9.75887 2.61597C10.1909 2.61597 10.5829 2.69197 10.9349 2.84397C11.2949 2.99597 11.5989 3.21597 11.8469 3.50397C12.0949 3.78397 12.2869 4.12797 12.4229 4.53597C12.5589 4.93597 12.6269 5.38397 12.6269 5.87997C12.6269 6.37597 12.5589 6.82797 12.4229 7.23597C12.2869 7.63597 12.0949 7.97997 11.8469 8.26797C11.5989 8.54797 11.2949 8.76397 10.9349 8.91597C10.5829 9.06797 10.1909 9.14397 9.75887 9.14397ZM9.75887 8.06397C10.2069 8.06397 10.5669 7.92797 10.8389 7.65597C11.1109 7.37597 11.2469 6.95997 11.2469 6.40797V5.35197C11.2469 4.79997 11.1109 4.38797 10.8389 4.11597C10.5669 3.83597 10.2069 3.69597 9.75887 3.69597C9.31087 3.69597 8.95087 3.83597 8.67887 4.11597C8.40687 4.38797 8.27087 4.79997 8.27087 5.35197V6.40797C8.27087 6.95997 8.40687 7.37597 8.67887 7.65597C8.95087 7.92797 9.31087 8.06397 9.75887 8.06397Z" fill="white"/>
<path d="M5.38798 0.624023V6.72002C5.38798 7.08802 5.32798 7.42002 5.20797 7.71602C5.08798 8.01202 4.91598 8.26802 4.69198 8.48402C4.47598 8.69202 4.20797 8.85602 3.88797 8.97602C3.57597 9.08802 3.22798 9.14402 2.84398 9.14402C2.11598 9.14402 1.53997 8.95202 1.11597 8.56802C0.699975 8.17602 0.435975 7.66802 0.323975 7.04402L1.57197 6.76802C1.64397 7.12802 1.77997 7.41202 1.97997 7.62002C2.18797 7.82802 2.47598 7.93202 2.84398 7.93202C3.20397 7.93202 3.49197 7.82002 3.70797 7.59602C3.92397 7.37202 4.03198 7.03202 4.03198 6.57602V1.75202H1.29597V0.624023H5.38798Z" fill="white"/>
</svg>
