<svg width="60" height="12" viewBox="0 0 60 12" fill="none" xmlns="http://www.w3.org/2000/svg">
<path d="M5.388 0.624V6.72C5.388 7.088 5.328 7.42 5.208 7.716C5.088 8.012 4.916 8.268 4.692 8.484C4.476 8.692 4.208 8.856 3.888 8.976C3.576 9.088 3.228 9.144 2.844 9.144C2.116 9.144 1.54 8.952 1.116 8.568C0.7 8.176 0.436 7.668 0.324 7.044L1.572 6.768C1.644 7.128 1.78 7.412 1.98 7.62C2.188 7.828 2.476 7.932 2.844 7.932C3.204 7.932 3.492 7.82 3.708 7.596C3.924 7.372 4.032 7.032 4.032 6.576V1.752H1.296V0.624H5.388ZM9.759 9.144C9.327 9.144 8.931 9.068 8.571 8.916C8.219 8.764 7.919 8.548 7.671 8.268C7.423 7.98 7.231 7.636 7.095 7.236C6.959 6.828 6.891 6.376 6.891 5.88C6.891 5.384 6.959 4.936 7.095 4.536C7.231 4.128 7.423 3.784 7.671 3.504C7.919 3.216 8.219 2.996 8.571 2.844C8.931 2.692 9.327 2.616 9.759 2.616C10.191 2.616 10.583 2.692 10.935 2.844C11.295 2.996 11.599 3.216 11.847 3.504C12.095 3.784 12.287 4.128 12.423 4.536C12.559 4.936 12.627 5.384 12.627 5.88C12.627 6.376 12.559 6.828 12.423 7.236C12.287 7.636 12.095 7.98 11.847 8.268C11.599 8.548 11.295 8.764 10.935 8.916C10.583 9.068 10.191 9.144 9.759 9.144ZM9.759 8.064C10.207 8.064 10.567 7.928 10.839 7.656C11.111 7.376 11.247 6.96 11.247 6.408V5.352C11.247 4.8 11.111 4.388 10.839 4.116C10.567 3.836 10.207 3.696 9.759 3.696C9.311 3.696 8.951 3.836 8.679 4.116C8.407 4.388 8.271 4.8 8.271 5.352V6.408C8.271 6.96 8.407 7.376 8.679 7.656C8.951 7.928 9.311 8.064 9.759 8.064ZM14.7444 1.644C14.4724 1.644 14.2724 1.58 14.1444 1.452C14.0244 1.324 13.9644 1.16 13.9644 0.96V0.756C13.9644 0.556 14.0244 0.392 14.1444 0.263999C14.2724 0.136 14.4724 0.0719998 14.7444 0.0719998C15.0164 0.0719998 15.2124 0.136 15.3324 0.263999C15.4524 0.392 15.5124 0.556 15.5124 0.756V0.96C15.5124 1.16 15.4524 1.324 15.3324 1.452C15.2124 1.58 15.0164 1.644 14.7444 1.644ZM14.0844 2.76H15.3924V9H14.0844V2.76ZM17.2602 9V2.76H18.5682V3.792H18.6282C18.7642 3.456 18.9682 3.176 19.2402 2.952C19.5202 2.728 19.9002 2.616 20.3802 2.616C21.0202 2.616 21.5162 2.828 21.8682 3.252C22.2282 3.668 22.4082 4.264 22.4082 5.04V9H21.1002V5.208C21.1002 4.232 20.7082 3.744 19.9242 3.744C19.7562 3.744 19.5882 3.768 19.4202 3.816C19.2602 3.856 19.1162 3.92 18.9882 4.008C18.8602 4.096 18.7562 4.208 18.6762 4.344C18.6042 4.48 18.5682 4.64 18.5682 4.824V9H17.2602ZM32.5411 7.728H32.4931C32.4051 8.136 32.1651 8.476 31.7731 8.748C31.3891 9.012 30.8771 9.144 30.2371 9.144C29.7411 9.144 29.2811 9.052 28.8571 8.868C28.4331 8.676 28.0651 8.4 27.7531 8.04C27.4491 7.672 27.2091 7.22 27.0331 6.684C26.8651 6.14 26.7811 5.516 26.7811 4.812C26.7811 4.116 26.8691 3.5 27.0451 2.964C27.2211 2.42 27.4691 1.964 27.7891 1.596C28.1091 1.228 28.4931 0.951999 28.9411 0.767999C29.3891 0.575999 29.8891 0.48 30.4411 0.48C31.1931 0.48 31.8291 0.648 32.3491 0.983999C32.8691 1.312 33.2731 1.772 33.5611 2.364L32.4571 3.012C32.2971 2.62 32.0491 2.304 31.7131 2.064C31.3771 1.816 30.9531 1.692 30.4411 1.692C29.7771 1.692 29.2411 1.904 28.8331 2.328C28.4331 2.752 28.2331 3.352 28.2331 4.128V5.496C28.2331 6.272 28.4331 6.872 28.8331 7.296C29.2411 7.72 29.7771 7.932 30.4411 7.932C30.7051 7.932 30.9571 7.9 31.1971 7.836C31.4371 7.764 31.6451 7.664 31.8211 7.536C32.0051 7.4 32.1491 7.236 32.2531 7.044C32.3651 6.844 32.4211 6.612 32.4211 6.348V5.7H30.6931V4.536H33.7291V9H32.5411V7.728ZM35.518 9V2.76H36.826V3.96H36.886C36.974 3.64 37.158 3.36 37.438 3.12C37.718 2.88 38.106 2.76 38.602 2.76H38.95V4.02H38.434C37.914 4.02 37.514 4.104 37.234 4.272C36.962 4.44 36.826 4.688 36.826 5.016V9H35.518ZM42.5012 9.144C42.0692 9.144 41.6732 9.068 41.3132 8.916C40.9612 8.764 40.6612 8.548 40.4132 8.268C40.1652 7.98 39.9732 7.636 39.8372 7.236C39.7012 6.828 39.6332 6.376 39.6332 5.88C39.6332 5.384 39.7012 4.936 39.8372 4.536C39.9732 4.128 40.1652 3.784 40.4132 3.504C40.6612 3.216 40.9612 2.996 41.3132 2.844C41.6732 2.692 42.0692 2.616 42.5012 2.616C42.9332 2.616 43.3252 2.692 43.6772 2.844C44.0372 2.996 44.3412 3.216 44.5892 3.504C44.8372 3.784 45.0292 4.128 45.1652 4.536C45.3012 4.936 45.3692 5.384 45.3692 5.88C45.3692 6.376 45.3012 6.828 45.1652 7.236C45.0292 7.636 44.8372 7.98 44.5892 8.268C44.3412 8.548 44.0372 8.764 43.6772 8.916C43.3252 9.068 42.9332 9.144 42.5012 9.144ZM42.5012 8.064C42.9492 8.064 43.3092 7.928 43.5812 7.656C43.8532 7.376 43.9892 6.96 43.9892 6.408V5.352C43.9892 4.8 43.8532 4.388 43.5812 4.116C43.3092 3.836 42.9492 3.696 42.5012 3.696C42.0532 3.696 41.6932 3.836 41.4212 4.116C41.1492 4.388 41.0132 4.8 41.0132 5.352V6.408C41.0132 6.96 41.1492 7.376 41.4212 7.656C41.6932 7.928 42.0532 8.064 42.5012 8.064ZM50.6066 7.968H50.5586C50.5026 8.12 50.4266 8.268 50.3306 8.412C50.2426 8.556 50.1266 8.684 49.9826 8.796C49.8466 8.9 49.6786 8.984 49.4786 9.048C49.2866 9.112 49.0626 9.144 48.8066 9.144C48.1586 9.144 47.6546 8.936 47.2946 8.52C46.9426 8.104 46.7666 7.508 46.7666 6.732V2.76H48.0746V6.564C48.0746 7.532 48.4746 8.016 49.2746 8.016C49.4426 8.016 49.6066 7.996 49.7666 7.956C49.9266 7.908 50.0666 7.84 50.1866 7.752C50.3146 7.664 50.4146 7.552 50.4866 7.416C50.5666 7.28 50.6066 7.12 50.6066 6.936V2.76H51.9146V9H50.6066V7.968ZM53.7876 2.76H55.0956V3.792H55.1556C55.2916 3.416 55.5116 3.128 55.8156 2.928C56.1276 2.72 56.4916 2.616 56.9076 2.616C57.6996 2.616 58.3116 2.904 58.7436 3.48C59.1756 4.048 59.3916 4.848 59.3916 5.88C59.3916 6.912 59.1756 7.716 58.7436 8.292C58.3116 8.86 57.6996 9.144 56.9076 9.144C56.4916 9.144 56.1276 9.04 55.8156 8.832C55.5116 8.624 55.2916 8.336 55.1556 7.968H55.0956V11.4H53.7876V2.76ZM56.5116 8.016C56.9676 8.016 57.3316 7.872 57.6036 7.584C57.8756 7.288 58.0116 6.9 58.0116 6.42V5.34C58.0116 4.86 57.8756 4.476 57.6036 4.188C57.3316 3.892 56.9676 3.744 56.5116 3.744C56.1116 3.744 55.7756 3.844 55.5036 4.044C55.2316 4.236 55.0956 4.492 55.0956 4.812V6.948C55.0956 7.268 55.2316 7.528 55.5036 7.728C55.7756 7.92 56.1116 8.016 56.5116 8.016Z" fill="white"/>
</svg>
