<svg width="67" height="12" viewBox="0 0 67 12" fill="none" xmlns="http://www.w3.org/2000/svg">
<path d="M0.032 9V0.624H1.388V7.8H4.796V9H0.032ZM8.41916 9.144C7.97116 9.144 7.57116 9.068 7.21916 8.916C6.86716 8.764 6.56716 8.548 6.31916 8.268C6.07116 7.98 5.87916 7.636 5.74316 7.236C5.61516 6.828 5.55116 6.376 5.55116 5.88C5.55116 5.384 5.61516 4.936 5.74316 4.536C5.87916 4.128 6.07116 3.784 6.31916 3.504C6.56716 3.216 6.86716 2.996 7.21916 2.844C7.57116 2.692 7.97116 2.616 8.41916 2.616C8.87516 2.616 9.27516 2.696 9.61916 2.856C9.97116 3.016 10.2632 3.24 10.4952 3.528C10.7272 3.808 10.8992 4.136 11.0112 4.512C11.1312 4.888 11.1912 5.292 11.1912 5.724V6.216H6.90716V6.42C6.90716 6.9 7.04716 7.296 7.32716 7.608C7.61516 7.912 8.02316 8.064 8.55116 8.064C8.93516 8.064 9.25916 7.98 9.52316 7.812C9.78716 7.644 10.0112 7.416 10.1952 7.128L10.9632 7.884C10.7312 8.268 10.3952 8.576 9.95516 8.808C9.51516 9.032 9.00316 9.144 8.41916 9.144ZM8.41916 3.636C8.19516 3.636 7.98716 3.676 7.79516 3.756C7.61116 3.836 7.45116 3.948 7.31516 4.092C7.18716 4.236 7.08716 4.408 7.01516 4.608C6.94316 4.808 6.90716 5.028 6.90716 5.268V5.352H9.81116V5.232C9.81116 4.752 9.68716 4.368 9.43916 4.08C9.19116 3.784 8.85116 3.636 8.41916 3.636ZM17.2111 9C16.8671 9 16.6031 8.904 16.4191 8.712C16.2351 8.512 16.1231 8.26 16.0831 7.956H16.0231C15.9031 8.348 15.6831 8.644 15.3631 8.844C15.0431 9.044 14.6551 9.144 14.1991 9.144C13.5511 9.144 13.0511 8.976 12.6991 8.64C12.3551 8.304 12.1831 7.852 12.1831 7.284C12.1831 6.66 12.4071 6.192 12.8551 5.88C13.3111 5.568 13.9751 5.412 14.8471 5.412H15.9751V4.884C15.9751 4.5 15.8711 4.204 15.6631 3.996C15.4551 3.788 15.1311 3.684 14.6911 3.684C14.3231 3.684 14.0231 3.764 13.7911 3.924C13.5591 4.084 13.3631 4.288 13.2031 4.536L12.4231 3.828C12.6311 3.476 12.9231 3.188 13.2991 2.964C13.6751 2.732 14.1671 2.616 14.7751 2.616C15.5831 2.616 16.2031 2.804 16.6351 3.18C17.0671 3.556 17.2831 4.096 17.2831 4.8V7.932H17.9431V9H17.2111ZM14.5711 8.148C14.9791 8.148 15.3151 8.06 15.5791 7.884C15.8431 7.7 15.9751 7.456 15.9751 7.152V6.252H14.8711C13.9671 6.252 13.5151 6.532 13.5151 7.092V7.308C13.5151 7.588 13.6071 7.8 13.7911 7.944C13.9831 8.08 14.2431 8.148 14.5711 8.148ZM20.4756 9L18.3516 2.76H19.6476L20.5956 5.604L21.2316 7.788H21.3036L21.9396 5.604L22.9116 2.76H24.1596L22.0116 9H20.4756ZM27.6145 9.144C27.1665 9.144 26.7665 9.068 26.4145 8.916C26.0625 8.764 25.7625 8.548 25.5145 8.268C25.2665 7.98 25.0745 7.636 24.9385 7.236C24.8105 6.828 24.7465 6.376 24.7465 5.88C24.7465 5.384 24.8105 4.936 24.9385 4.536C25.0745 4.128 25.2665 3.784 25.5145 3.504C25.7625 3.216 26.0625 2.996 26.4145 2.844C26.7665 2.692 27.1665 2.616 27.6145 2.616C28.0705 2.616 28.4705 2.696 28.8145 2.856C29.1665 3.016 29.4585 3.24 29.6905 3.528C29.9225 3.808 30.0945 4.136 30.2065 4.512C30.3265 4.888 30.3865 5.292 30.3865 5.724V6.216H26.1025V6.42C26.1025 6.9 26.2425 7.296 26.5225 7.608C26.8105 7.912 27.2185 8.064 27.7465 8.064C28.1305 8.064 28.4545 7.98 28.7185 7.812C28.9825 7.644 29.2065 7.416 29.3905 7.128L30.1585 7.884C29.9265 8.268 29.5905 8.576 29.1505 8.808C28.7105 9.032 28.1985 9.144 27.6145 9.144ZM27.6145 3.636C27.3905 3.636 27.1825 3.676 26.9905 3.756C26.8065 3.836 26.6465 3.948 26.5105 4.092C26.3825 4.236 26.2825 4.408 26.2105 4.608C26.1385 4.808 26.1025 5.028 26.1025 5.268V5.352H29.0065V5.232C29.0065 4.752 28.8825 4.368 28.6345 4.08C28.3865 3.784 28.0465 3.636 27.6145 3.636ZM40.1544 7.728H40.1064C40.0184 8.136 39.7784 8.476 39.3864 8.748C39.0024 9.012 38.4904 9.144 37.8504 9.144C37.3544 9.144 36.8944 9.052 36.4704 8.868C36.0464 8.676 35.6784 8.4 35.3664 8.04C35.0624 7.672 34.8224 7.22 34.6464 6.684C34.4784 6.14 34.3944 5.516 34.3944 4.812C34.3944 4.116 34.4824 3.5 34.6584 2.964C34.8344 2.42 35.0824 1.964 35.4024 1.596C35.7224 1.228 36.1064 0.951999 36.5544 0.767999C37.0024 0.575999 37.5024 0.48 38.0544 0.48C38.8064 0.48 39.4424 0.648 39.9624 0.983999C40.4824 1.312 40.8864 1.772 41.1744 2.364L40.0704 3.012C39.9104 2.62 39.6624 2.304 39.3264 2.064C38.9904 1.816 38.5664 1.692 38.0544 1.692C37.3904 1.692 36.8544 1.904 36.4464 2.328C36.0464 2.752 35.8464 3.352 35.8464 4.128V5.496C35.8464 6.272 36.0464 6.872 36.4464 7.296C36.8544 7.72 37.3904 7.932 38.0544 7.932C38.3184 7.932 38.5704 7.9 38.8104 7.836C39.0504 7.764 39.2584 7.664 39.4344 7.536C39.6184 7.4 39.7624 7.236 39.8664 7.044C39.9784 6.844 40.0344 6.612 40.0344 6.348V5.7H38.3064V4.536H41.3424V9H40.1544V7.728ZM43.1313 9V2.76H44.4393V3.96H44.4993C44.5873 3.64 44.7713 3.36 45.0513 3.12C45.3313 2.88 45.7193 2.76 46.2153 2.76H46.5633V4.02H46.0473C45.5273 4.02 45.1273 4.104 44.8473 4.272C44.5753 4.44 44.4393 4.688 44.4393 5.016V9H43.1313ZM50.1145 9.144C49.6825 9.144 49.2865 9.068 48.9265 8.916C48.5745 8.764 48.2745 8.548 48.0265 8.268C47.7785 7.98 47.5865 7.636 47.4505 7.236C47.3145 6.828 47.2465 6.376 47.2465 5.88C47.2465 5.384 47.3145 4.936 47.4505 4.536C47.5865 4.128 47.7785 3.784 48.0265 3.504C48.2745 3.216 48.5745 2.996 48.9265 2.844C49.2865 2.692 49.6825 2.616 50.1145 2.616C50.5465 2.616 50.9385 2.692 51.2905 2.844C51.6505 2.996 51.9545 3.216 52.2025 3.504C52.4505 3.784 52.6425 4.128 52.7785 4.536C52.9145 4.936 52.9825 5.384 52.9825 5.88C52.9825 6.376 52.9145 6.828 52.7785 7.236C52.6425 7.636 52.4505 7.98 52.2025 8.268C51.9545 8.548 51.6505 8.764 51.2905 8.916C50.9385 9.068 50.5465 9.144 50.1145 9.144ZM50.1145 8.064C50.5625 8.064 50.9225 7.928 51.1945 7.656C51.4665 7.376 51.6025 6.96 51.6025 6.408V5.352C51.6025 4.8 51.4665 4.388 51.1945 4.116C50.9225 3.836 50.5625 3.696 50.1145 3.696C49.6665 3.696 49.3065 3.836 49.0345 4.116C48.7625 4.388 48.6265 4.8 48.6265 5.352V6.408C48.6265 6.96 48.7625 7.376 49.0345 7.656C49.3065 7.928 49.6665 8.064 50.1145 8.064ZM58.2199 7.968H58.1719C58.1159 8.12 58.0399 8.268 57.9439 8.412C57.8559 8.556 57.7399 8.684 57.5959 8.796C57.4599 8.9 57.2919 8.984 57.0919 9.048C56.8999 9.112 56.6759 9.144 56.4199 9.144C55.7719 9.144 55.2679 8.936 54.9079 8.52C54.5559 8.104 54.3799 7.508 54.3799 6.732V2.76H55.6879V6.564C55.6879 7.532 56.0879 8.016 56.8879 8.016C57.0559 8.016 57.2199 7.996 57.3799 7.956C57.5399 7.908 57.6799 7.84 57.7999 7.752C57.9279 7.664 58.0279 7.552 58.0999 7.416C58.1799 7.28 58.2199 7.12 58.2199 6.936V2.76H59.5279V9H58.2199V7.968ZM61.4008 2.76H62.7088V3.792H62.7688C62.9048 3.416 63.1248 3.128 63.4288 2.928C63.7408 2.72 64.1048 2.616 64.5208 2.616C65.3128 2.616 65.9248 2.904 66.3568 3.48C66.7888 4.048 67.0048 4.848 67.0048 5.88C67.0048 6.912 66.7888 7.716 66.3568 8.292C65.9248 8.86 65.3128 9.144 64.5208 9.144C64.1048 9.144 63.7408 9.04 63.4288 8.832C63.1248 8.624 62.9048 8.336 62.7688 7.968H62.7088V11.4H61.4008V2.76ZM64.1248 8.016C64.5808 8.016 64.9448 7.872 65.2168 7.584C65.4888 7.288 65.6248 6.9 65.6248 6.42V5.34C65.6248 4.86 65.4888 4.476 65.2168 4.188C64.9448 3.892 64.5808 3.744 64.1248 3.744C63.7248 3.744 63.3888 3.844 63.1168 4.044C62.8448 4.236 62.7088 4.492 62.7088 4.812V6.948C62.7088 7.268 62.8448 7.528 63.1168 7.728C63.3888 7.92 63.7248 8.016 64.1248 8.016Z" fill="white"/>
</svg>
