<svg width="134" height="36" viewBox="0 0 134 36" fill="none" xmlns="http://www.w3.org/2000/svg">
<rect x="0.4" y="0.4" width="133.2" height="35.2" rx="3.6" fill="white" stroke="#989899" stroke-width="0.8"/>
<path d="M39.29 24V13.53H40.985V22.5H45.245V24H39.29ZM49.7739 24.18C49.2139 24.18 48.7139 24.085 48.2739 23.895C47.8339 23.705 47.4589 23.435 47.1489 23.085C46.8389 22.725 46.5989 22.295 46.4289 21.795C46.2689 21.285 46.1889 20.72 46.1889 20.1C46.1889 19.48 46.2689 18.92 46.4289 18.42C46.5989 17.91 46.8389 17.48 47.1489 17.13C47.4589 16.77 47.8339 16.495 48.2739 16.305C48.7139 16.115 49.2139 16.02 49.7739 16.02C50.3439 16.02 50.8439 16.12 51.2739 16.32C51.7139 16.52 52.0789 16.8 52.3689 17.16C52.6589 17.51 52.8739 17.92 53.0139 18.39C53.1639 18.86 53.2389 19.365 53.2389 19.905V20.52H47.8839V20.775C47.8839 21.375 48.0589 21.87 48.4089 22.26C48.7689 22.64 49.2789 22.83 49.9389 22.83C50.4189 22.83 50.8239 22.725 51.1539 22.515C51.4839 22.305 51.7639 22.02 51.9939 21.66L52.9539 22.605C52.6639 23.085 52.2439 23.47 51.6939 23.76C51.1439 24.04 50.5039 24.18 49.7739 24.18ZM49.7739 17.295C49.4939 17.295 49.2339 17.345 48.9939 17.445C48.7639 17.545 48.5639 17.685 48.3939 17.865C48.2339 18.045 48.1089 18.26 48.0189 18.51C47.9289 18.76 47.8839 19.035 47.8839 19.335V19.44H51.5139V19.29C51.5139 18.69 51.3589 18.21 51.0489 17.85C50.7389 17.48 50.3139 17.295 49.7739 17.295ZM60.7639 24C60.3339 24 60.0039 23.88 59.7739 23.64C59.5439 23.39 59.4039 23.075 59.3539 22.695H59.2789C59.1289 23.185 58.8539 23.555 58.4539 23.805C58.0539 24.055 57.5689 24.18 56.9989 24.18C56.1889 24.18 55.5639 23.97 55.1239 23.55C54.6939 23.13 54.4789 22.565 54.4789 21.855C54.4789 21.075 54.7589 20.49 55.3189 20.1C55.8889 19.71 56.7189 19.515 57.8089 19.515H59.2189V18.855C59.2189 18.375 59.0889 18.005 58.8289 17.745C58.5689 17.485 58.1639 17.355 57.6139 17.355C57.1539 17.355 56.7789 17.455 56.4889 17.655C56.1989 17.855 55.9539 18.11 55.7539 18.42L54.7789 17.535C55.0389 17.095 55.4039 16.735 55.8739 16.455C56.3439 16.165 56.9589 16.02 57.7189 16.02C58.7289 16.02 59.5039 16.255 60.0439 16.725C60.5839 17.195 60.8539 17.87 60.8539 18.75V22.665H61.6789V24H60.7639ZM57.4639 22.935C57.9739 22.935 58.3939 22.825 58.7239 22.605C59.0539 22.375 59.2189 22.07 59.2189 21.69V20.565H57.8389C56.7089 20.565 56.1439 20.915 56.1439 21.615V21.885C56.1439 22.235 56.2589 22.5 56.4889 22.68C56.7289 22.85 57.0539 22.935 57.4639 22.935ZM64.8445 24L62.1895 16.2H63.8095L64.9945 19.755L65.7895 22.485H65.8795L66.6745 19.755L67.8895 16.2H69.4495L66.7645 24H64.8445ZM73.7681 24.18C73.2081 24.18 72.7081 24.085 72.2681 23.895C71.8281 23.705 71.4531 23.435 71.1431 23.085C70.8331 22.725 70.5931 22.295 70.4231 21.795C70.2631 21.285 70.1831 20.72 70.1831 20.1C70.1831 19.48 70.2631 18.92 70.4231 18.42C70.5931 17.91 70.8331 17.48 71.1431 17.13C71.4531 16.77 71.8281 16.495 72.2681 16.305C72.7081 16.115 73.2081 16.02 73.7681 16.02C74.3381 16.02 74.8381 16.12 75.2681 16.32C75.7081 16.52 76.0731 16.8 76.3631 17.16C76.6531 17.51 76.8681 17.92 77.0081 18.39C77.1581 18.86 77.2331 19.365 77.2331 19.905V20.52H71.8781V20.775C71.8781 21.375 72.0531 21.87 72.4031 22.26C72.7631 22.64 73.2731 22.83 73.9331 22.83C74.4131 22.83 74.8181 22.725 75.1481 22.515C75.4781 22.305 75.7581 22.02 75.9881 21.66L76.9481 22.605C76.6581 23.085 76.2381 23.47 75.6881 23.76C75.1381 24.04 74.4981 24.18 73.7681 24.18ZM73.7681 17.295C73.4881 17.295 73.2281 17.345 72.9881 17.445C72.7581 17.545 72.5581 17.685 72.3881 17.865C72.2281 18.045 72.1031 18.26 72.0131 18.51C71.9231 18.76 71.8781 19.035 71.8781 19.335V19.44H75.5081V19.29C75.5081 18.69 75.3531 18.21 75.0431 17.85C74.7331 17.48 74.3081 17.295 73.7681 17.295ZM89.443 22.41H89.383C89.273 22.92 88.973 23.345 88.483 23.685C88.003 24.015 87.363 24.18 86.563 24.18C85.943 24.18 85.368 24.065 84.838 23.835C84.308 23.595 83.848 23.25 83.458 22.8C83.078 22.34 82.778 21.775 82.558 21.105C82.348 20.425 82.243 19.645 82.243 18.765C82.243 17.895 82.353 17.125 82.573 16.455C82.793 15.775 83.103 15.205 83.503 14.745C83.903 14.285 84.383 13.94 84.943 13.71C85.503 13.47 86.128 13.35 86.818 13.35C87.758 13.35 88.553 13.56 89.203 13.98C89.853 14.39 90.358 14.965 90.718 15.705L89.338 16.515C89.138 16.025 88.828 15.63 88.408 15.33C87.988 15.02 87.458 14.865 86.818 14.865C85.988 14.865 85.318 15.13 84.808 15.66C84.308 16.19 84.058 16.94 84.058 17.91V19.62C84.058 20.59 84.308 21.34 84.808 21.87C85.318 22.4 85.988 22.665 86.818 22.665C87.148 22.665 87.463 22.625 87.763 22.545C88.063 22.455 88.323 22.33 88.543 22.17C88.773 22 88.953 21.795 89.083 21.555C89.223 21.305 89.293 21.015 89.293 20.685V19.875H87.133V18.42H90.928V24H89.443V22.41ZM93.1641 24V16.2H94.7991V17.7H94.8741C94.9841 17.3 95.2141 16.95 95.5641 16.65C95.9141 16.35 96.3991 16.2 97.0191 16.2H97.4541V17.775H96.8091C96.1591 17.775 95.6591 17.88 95.3091 18.09C94.9691 18.3 94.7991 18.61 94.7991 19.02V24H93.1641ZM101.893 24.18C101.353 24.18 100.858 24.085 100.408 23.895C99.9681 23.705 99.5931 23.435 99.2831 23.085C98.9731 22.725 98.7331 22.295 98.5631 21.795C98.3931 21.285 98.3081 20.72 98.3081 20.1C98.3081 19.48 98.3931 18.92 98.5631 18.42C98.7331 17.91 98.9731 17.48 99.2831 17.13C99.5931 16.77 99.9681 16.495 100.408 16.305C100.858 16.115 101.353 16.02 101.893 16.02C102.433 16.02 102.923 16.115 103.363 16.305C103.813 16.495 104.193 16.77 104.503 17.13C104.813 17.48 105.053 17.91 105.223 18.42C105.393 18.92 105.478 19.48 105.478 20.1C105.478 20.72 105.393 21.285 105.223 21.795C105.053 22.295 104.813 22.725 104.503 23.085C104.193 23.435 103.813 23.705 103.363 23.895C102.923 24.085 102.433 24.18 101.893 24.18ZM101.893 22.83C102.453 22.83 102.903 22.66 103.243 22.32C103.583 21.97 103.753 21.45 103.753 20.76V19.44C103.753 18.75 103.583 18.235 103.243 17.895C102.903 17.545 102.453 17.37 101.893 17.37C101.333 17.37 100.883 17.545 100.543 17.895C100.203 18.235 100.033 18.75 100.033 19.44V20.76C100.033 21.45 100.203 21.97 100.543 22.32C100.883 22.66 101.333 22.83 101.893 22.83ZM112.025 22.71H111.965C111.895 22.9 111.8 23.085 111.68 23.265C111.57 23.445 111.425 23.605 111.245 23.745C111.075 23.875 110.865 23.98 110.615 24.06C110.375 24.14 110.095 24.18 109.775 24.18C108.965 24.18 108.335 23.92 107.885 23.4C107.445 22.88 107.225 22.135 107.225 21.165V16.2H108.86V20.955C108.86 22.165 109.36 22.77 110.36 22.77C110.57 22.77 110.775 22.745 110.975 22.695C111.175 22.635 111.35 22.55 111.5 22.44C111.66 22.33 111.785 22.19 111.875 22.02C111.975 21.85 112.025 21.65 112.025 21.42V16.2H113.66V24H112.025V22.71ZM116.001 16.2H117.636V17.49H117.711C117.881 17.02 118.156 16.66 118.536 16.41C118.926 16.15 119.381 16.02 119.901 16.02C120.891 16.02 121.656 16.38 122.196 17.1C122.736 17.81 123.006 18.81 123.006 20.1C123.006 21.39 122.736 22.395 122.196 23.115C121.656 23.825 120.891 24.18 119.901 24.18C119.381 24.18 118.926 24.05 118.536 23.79C118.156 23.53 117.881 23.17 117.711 22.71H117.636V27H116.001V16.2ZM119.406 22.77C119.976 22.77 120.431 22.59 120.771 22.23C121.111 21.86 121.281 21.375 121.281 20.775V19.425C121.281 18.825 121.111 18.345 120.771 17.985C120.431 17.615 119.976 17.43 119.406 17.43C118.906 17.43 118.486 17.555 118.146 17.805C117.806 18.045 117.636 18.365 117.636 18.765V21.435C117.636 21.835 117.806 22.16 118.146 22.41C118.486 22.65 118.906 22.77 119.406 22.77Z" fill="#6A6A6B"/>
<g clip-path="url(#clip0_1_1219)">
<path d="M19.2492 21.2908L20.5417 22.5833L25.125 18L20.5417 13.4167L19.2492 14.7092L21.6142 17.0833H12.75V18.9167H21.6142L19.2492 21.2908ZM27.4167 9.75H14.5833C13.5658 9.75 12.75 10.575 12.75 11.5833V15.25H14.5833V11.5833H27.4167V24.4167H14.5833V20.75H12.75V24.4167C12.75 25.425 13.5658 26.25 14.5833 26.25H27.4167C28.425 26.25 29.25 25.425 29.25 24.4167V11.5833C29.25 10.575 28.425 9.75 27.4167 9.75Z" fill="#6A6A6B"/>
</g>
<defs>
<clipPath id="clip0_1_1219">
<rect width="22" height="22" fill="white" transform="translate(10 7)"/>
</clipPath>
</defs>
</svg>
